<svg width="24.000000" height="24.000000" viewBox="0 0 24 24" fill="none" xmlns="http://www.w3.org/2000/svg" xmlns:xlink="http://www.w3.org/1999/xlink">
	<desc>
			Created with Pixso.
	</desc>
	<defs>
		<clipPath id="clip49_7171">
			<rect id="icons8-broom 1" width="24.000000" height="24.000000" fill="white" fill-opacity="0"/>
		</clipPath>
	</defs>
	<rect id="icons8-broom 1" width="24.000000" height="24.000000" fill="#FFFFFF" fill-opacity="0"/>
	<g clip-path="url(#clip49_7171)">
		<path id="Vector" d="M16.71 8.7C15.49 8.15 14.07 8.7 13.53 9.91L20.86 13.18C21.4 11.96 20.85 10.54 19.64 10C19.38 9.88 16.97 8.81 16.71 8.7ZM20.44 2.19L16.94 8.8L19.3 9.85L21.98 2.87C22.07 2.6 21.82 2.25 21.41 2.07C21.01 1.89 20.58 1.94 20.44 2.19Z" stroke="#B2B7C1" stroke-opacity="1.000000" stroke-width="1.400000" stroke-linejoin="round"/>
		<path id="Vector" d="M19.67 14.21C18.17 18.79 16.22 21.16 16.22 21.16C16.22 21.16 9.52 20.92 5.17 15.55C6.06 15.61 11.66 15.13 13.59 11.41" stroke="#B2B7C1" stroke-opacity="1.000000" stroke-width="1.400000" stroke-linejoin="round" stroke-linecap="round"/>
		<path id="Vector" d="M11.03 16.55C10.12 18.22 9.03 18.86 9.03 18.86L7.77 18.02C7.77 18.02 9.89 17.74 11.03 16.55ZM15.27 17.1C14.25 19.43 12.92 20.56 12.92 20.56L10.76 19.69C10.76 19.69 12.43 19.71 15.27 17.1Z" stroke="#B2B7C1" stroke-opacity="1.000000" stroke-width="1.400000" stroke-linejoin="round"/>
		<path id="Vector" d="M3.41 9C3.34 9 3.27 9.01 3.2 9.04C3.13 9.07 3.07 9.11 3.02 9.16C2.96 9.21 2.92 9.27 2.89 9.34C2.87 9.41 2.85 9.48 2.85 9.56C2.85 9.63 2.87 9.7 2.89 9.77C2.92 9.84 2.96 9.9 3.02 9.95C3.07 10.01 3.13 10.05 3.2 10.07C3.27 10.1 3.34 10.12 3.41 10.12C3.49 10.12 3.56 10.1 3.63 10.07C3.7 10.05 3.76 10.01 3.81 9.95C3.86 9.9 3.9 9.84 3.93 9.77C3.96 9.7 3.97 9.63 3.97 9.56C3.97 9.48 3.96 9.41 3.93 9.34C3.9 9.27 3.86 9.21 3.81 9.16C3.76 9.11 3.7 9.07 3.63 9.04C3.56 9.01 3.49 9 3.41 9ZM5.09 9.37C5 9.37 4.9 9.41 4.83 9.48C4.76 9.55 4.72 9.64 4.72 9.74C4.72 9.84 4.76 9.94 4.83 10.01C4.9 10.08 5 10.12 5.09 10.12C5.19 10.12 5.29 10.08 5.36 10.01C5.43 9.94 5.47 9.84 5.47 9.74C5.47 9.64 5.43 9.55 5.36 9.48C5.29 9.41 5.19 9.37 5.09 9.37ZM4.25 11.14C4.42 10.96 4.66 10.86 4.91 10.86C5.16 10.86 5.39 10.96 5.57 11.14C5.74 11.31 5.84 11.55 5.84 11.8C5.84 12.05 5.74 12.28 5.57 12.46C5.39 12.63 5.16 12.73 4.91 12.73C4.66 12.73 4.42 12.63 4.25 12.46C4.07 12.28 3.97 12.05 3.97 11.8C3.97 11.55 4.07 11.31 4.25 11.14Z" fill="#B2B7C1" fill-opacity="1.000000" fill-rule="evenodd"/>
	</g>
</svg>
