<svg width="24.000000" height="24.000000" viewBox="0 0 24 24" fill="none" xmlns="http://www.w3.org/2000/svg" xmlns:xlink="http://www.w3.org/1999/xlink">
	<desc>
			Created with Pixso.
	</desc>
	<defs>
		<clipPath id="clip40_4615">
			<rect id="edit 1" width="24.000000" height="24.000000" fill="white" fill-opacity="0"/>
		</clipPath>
	</defs>
	<rect id="edit 1" width="24.000000" height="24.000000" fill="#FFFFFF" fill-opacity="0"/>
	<g clip-path="url(#clip40_4615)">
		<path id="Vector" d="M9 7L6 7C5.46 7 4.96 7.21 4.58 7.58C4.21 7.96 4 8.46 4 9L4 18C4 18.53 4.21 19.03 4.58 19.41C4.96 19.78 5.46 20 6 20L15 20C15.53 20 16.03 19.78 16.41 19.41C16.78 19.03 17 18.53 17 18L17 15" stroke="#3365FC" stroke-opacity="1.000000" stroke-width="2.000000" stroke-linejoin="round" stroke-linecap="round"/>
		<path id="Vector" d="M12 15L20.5 6.5C20.89 6.1 21.12 5.56 21.12 5C21.12 4.43 20.89 3.89 20.5 3.5C20.1 3.1 19.56 2.87 19 2.87C18.43 2.87 17.89 3.1 17.5 3.5L9 12L9 15L12 15Z" stroke="#3365FC" stroke-opacity="1.000000" stroke-width="2.000000" stroke-linejoin="round"/>
		<path id="Vector" d="M16 5L19 8" stroke="#3365FC" stroke-opacity="1.000000" stroke-width="2.000000" stroke-linejoin="round" stroke-linecap="round"/>
	</g>
</svg>
