<svg width="16.000000" height="16.000000" viewBox="0 0 16 16" fill="none" xmlns="http://www.w3.org/2000/svg" xmlns:xlink="http://www.w3.org/1999/xlink">
	<desc>
			Created with Pixso.
	</desc>
	<defs>
		<clipPath id="clip120_1384">
			<rect id="filter 1" width="16.000000" height="16.000000" fill="white" fill-opacity="0"/>
		</clipPath>
	</defs>
	<rect id="filter 1" width="16.000000" height="16.000000" fill="#FFFFFF" fill-opacity="0"/>
	<g clip-path="url(#clip120_1384)">
		<path id="Vector" d="M12.66 1.33L3.33 1.33C2.8 1.33 2.29 1.54 1.91 1.91C1.54 2.29 1.33 2.8 1.33 3.33L1.33 4.11C1.33 4.38 1.39 4.66 1.5 4.91L1.5 4.95C1.59 5.16 1.72 5.36 1.89 5.52L6 9.6L6 14C6 14.11 6.02 14.22 6.08 14.32C6.13 14.42 6.21 14.5 6.31 14.56C6.41 14.63 6.54 14.66 6.66 14.66C6.77 14.66 6.87 14.64 6.96 14.59L9.63 13.26C9.74 13.2 9.83 13.11 9.9 13.01C9.96 12.91 10 12.78 10 12.66L10 9.6L14.08 5.52C14.24 5.36 14.37 5.16 14.47 4.95L14.47 4.91C14.59 4.66 14.65 4.39 14.66 4.11L14.66 3.33C14.66 2.8 14.45 2.29 14.08 1.91C13.7 1.54 13.19 1.33 12.66 1.33ZM8.86 8.85C8.79 8.92 8.74 8.99 8.71 9.07C8.68 9.15 8.66 9.24 8.66 9.33L8.66 12.25L7.33 12.92L7.33 9.33C7.33 9.24 7.31 9.15 7.28 9.07C7.25 8.99 7.2 8.92 7.14 8.85L3.6 5.33L12.39 5.33L8.86 8.85ZM13.33 4L2.66 4L2.66 3.33C2.66 3.15 2.73 2.98 2.86 2.86C2.98 2.73 3.15 2.66 3.33 2.66L12.66 2.66C12.84 2.66 13.01 2.73 13.13 2.86C13.26 2.98 13.33 3.15 13.33 3.33L13.33 4Z" fill="#3365FC" fill-opacity="1.000000" fill-rule="nonzero"/>
	</g>
</svg>
