<svg width="32.000000" height="32.000000" viewBox="0 0 32 32" fill="none" xmlns="http://www.w3.org/2000/svg" xmlns:xlink="http://www.w3.org/1999/xlink">
	<desc>
			Created with Pixso.
	</desc>
	<defs>
		<clipPath id="clip120_1408">
			<rect id="log-out 1" width="32.000000" height="32.000000" fill="white" fill-opacity="0"/>
		</clipPath>
	</defs>
	<rect id="log-out 1" width="32.000000" height="32.000000" fill="#FFFFFF" fill-opacity="0"/>
	<g clip-path="url(#clip120_1408)">
		<path id="Vector" d="M10 16C10 15.73 10.1 15.48 10.29 15.29C10.48 15.1 10.73 15 11 15L20 15L20 8.5C20 6.5 17.88 5 16 5L6.5 5C5.57 5 4.68 5.37 4.02 6.02C3.37 6.68 3 7.57 3 8.5L3 23.5C3 24.42 3.37 25.31 4.02 25.97C4.68 26.62 5.57 26.99 6.5 27L16.5 27C17.42 26.99 18.31 26.62 18.97 25.97C19.62 25.31 19.99 24.42 20 23.5L20 17L11 17C10.73 17 10.48 16.89 10.29 16.7C10.1 16.51 10 16.26 10 16Z" fill="#B1B1B8" fill-opacity="1.000000" fill-rule="nonzero"/>
		<path id="Vector" d="M28.7 15.29L23.7 10.29C23.51 10.11 23.26 10.01 23 10.01C22.74 10.02 22.49 10.12 22.31 10.31C22.12 10.49 22.02 10.74 22.01 11C22.01 11.26 22.11 11.51 22.29 11.7L25.58 15L20 15L20 17L25.58 17L22.29 20.29C22.19 20.38 22.11 20.49 22.06 20.61C22.01 20.74 21.98 20.87 21.98 21C21.98 21.13 22 21.27 22.05 21.39C22.1 21.51 22.18 21.63 22.27 21.72C22.36 21.81 22.48 21.89 22.6 21.94C22.72 21.99 22.86 22.01 22.99 22.01C23.12 22.01 23.25 21.98 23.38 21.93C23.5 21.88 23.61 21.8 23.7 21.7L28.7 16.7C28.89 16.51 28.99 16.26 28.99 16C28.99 15.73 28.89 15.48 28.7 15.29Z" fill="#B1B1B8" fill-opacity="1.000000" fill-rule="nonzero"/>
	</g>
</svg>
