<svg width="173.000000" height="24.000000" viewBox="0 0 173 24" fill="none" xmlns="http://www.w3.org/2000/svg" xmlns:xlink="http://www.w3.org/1999/xlink">
	<desc>
			Created with Pixso.
	</desc>
	<defs/>
	<path id="Vector" d="M40.3 1.44L42.47 2.34L59.92 22.14C60.5 22.79 60.04 23.83 59.16 23.83L20.6 23.83L40.3 1.44Z" fill="#2044A0" fill-opacity="1.000000" fill-rule="nonzero"/>
	<path id="Vector" d="M19.47 23.81L26.96 23.81L42.55 6.11C44.16 4.31 42.86 1.44 40.44 1.44C39.62 1.44 38.87 1.78 38.33 2.4L19.47 23.81Z" fill="#C7DAFF" fill-opacity="1.000000" fill-rule="nonzero"/>
	<path id="Vector" d="M20.22 1.44L22.39 2.34L41.31 23.81L0.53 23.81L20.22 1.44Z" fill="#3366FF" fill-opacity="1.000000" fill-rule="nonzero"/>
	<path id="Vector" d="M0.51 23.81L6.89 23.81L22.47 6.11C24.06 4.31 22.77 1.44 20.34 1.44C19.53 1.44 18.77 1.78 18.24 2.4L0.13 22.97C-0.17 23.29 0.07 23.81 0.51 23.81Z" fill="#C7DAFF" fill-opacity="1.000000" fill-rule="nonzero"/>
	<path id="Vector" d="M84.38 5.6L80.96 12.7L78.73 12.7L75.27 5.58L74.26 14.29L71.36 14.29L73.09 0.25L75.49 0.25L79.83 9.46L84.12 0.25L86.56 0.25L88.27 14.29L85.39 14.29L84.38 5.6Z" fill="#28293D" fill-opacity="1.000000" fill-rule="nonzero"/>
	<path id="PRO" d="M88.29 20.9C88.29 22.6 86.93 24 85.24 24C83.53 24 82.19 22.6 82.19 20.9C82.19 19.2 83.53 17.8 85.24 17.8C86.93 17.8 88.29 19.2 88.29 20.9ZM74.13 17.9L71.69 17.9L71.69 23.89L72.9 23.89L72.9 21.8L74.13 21.8C75.49 21.8 76.08 20.84 76.08 19.86C76.08 18.89 75.49 17.9 74.13 17.9ZM78.68 21.74L80.1 23.89L81.52 23.89L79.96 21.68C80.97 21.48 81.41 20.71 81.41 19.86C81.41 18.89 80.82 17.9 79.45 17.9L77.06 17.9L77.06 23.89L78.27 23.89L78.27 21.74L78.68 21.74ZM83.4 20.9C83.4 21.98 84.16 22.86 85.24 22.86C86.31 22.86 87.07 21.98 87.07 20.9C87.07 19.82 86.31 18.94 85.24 18.94C84.16 18.94 83.4 19.82 83.4 20.9ZM74.07 20.74L72.9 20.74L72.9 18.97L74.09 18.97C74.65 18.97 74.87 19.42 74.87 19.86C74.87 20.28 74.65 20.74 74.07 20.74ZM78.27 20.77L78.27 18.97L79.33 18.97C79.89 18.97 80.2 19.4 80.2 19.88C80.2 20.36 79.92 20.77 79.23 20.77L78.27 20.77Z" fill="#00AE69" fill-opacity="1.000000" fill-rule="evenodd"/>
	<path id="Vector" d="M99.94 14.29L90.96 14.29L90.96 0.25L99.76 0.25L99.76 2.76L93.8 2.76L93.8 6.1L99.03 6.1L99.03 8.64L93.8 8.64L93.8 11.78L99.96 11.78L99.96 14.29L99.94 14.29Z" fill="#28293D" fill-opacity="1.000000" fill-rule="nonzero"/>
	<path id="Vector" d="M108.05 2.76L108.05 14.29L105.23 14.29L105.23 2.76L101.35 2.76L101.35 0.25L111.93 0.25L111.93 2.76L108.05 2.76Z" fill="#28293D" fill-opacity="1.000000" fill-rule="nonzero"/>
	<path id="Vector" d="M113.08 10.21L115.9 10.21C115.92 11.21 116.9 12.04 118.21 12.04C119.5 12.04 120.32 11.35 120.32 10.35C120.32 9.6 119.72 9.02 118.55 8.66L116.84 8.16C113.76 7.35 113.22 5.48 113.22 4.23C113.22 1.7 115.39 0 118.07 0C120.73 0 122.76 1.61 122.76 4.27L119.94 4.27C119.94 3.27 119.24 2.5 118.03 2.5C116.92 2.5 116.1 3.22 116.1 4.17C116.1 4.53 116.2 5.22 117.67 5.66L119.24 6.12C121.37 6.71 123.22 7.81 123.22 10.21C123.22 12.98 120.83 14.53 118.19 14.53C115.15 14.53 113.08 12.68 113.08 10.21Z" fill="#28293D" fill-opacity="1.000000" fill-rule="nonzero"/>
	<path id="Vector" d="M134.71 14.29L125.72 14.29L125.72 0.25L134.53 0.25L134.53 2.76L128.57 2.76L128.57 6.1L133.79 6.1L133.79 8.64L128.57 8.64L128.57 11.78L134.73 11.78L134.73 14.29L134.71 14.29Z" fill="#28293D" fill-opacity="1.000000" fill-rule="nonzero"/>
	<path id="Vector" d="M147.91 14.29L145.36 14.29L140.27 5.48L140.27 14.29L137.45 14.29L137.45 0.25L140.08 0.25L145.08 8.96L145.08 0.25L147.91 0.25L147.91 14.29Z" fill="#28293D" fill-opacity="1.000000" fill-rule="nonzero"/>
	<path id="Vector" d="M153.65 10.93L152.54 14.29L149.52 14.29L154.74 0.25L157.81 0.25L163.01 14.29L160.03 14.29L158.9 10.93L153.65 10.93ZM156.25 3.2L154.49 8.46L158.04 8.46L156.25 3.2Z" fill="#28293D" fill-opacity="1.000000" fill-rule="nonzero"/>
	<path id="Vector" d="M168.86 2.76L168.86 14.29L166.03 14.29L166.03 2.76L162.16 2.76L162.16 0.25L172.73 0.25L172.73 2.76L168.86 2.76Z" fill="#28293D" fill-opacity="1.000000" fill-rule="nonzero"/>
</svg>
