<svg width="24.000000" height="24.000000" viewBox="0 0 24 24" fill="none" xmlns="http://www.w3.org/2000/svg" xmlns:xlink="http://www.w3.org/1999/xlink">
	<desc>
			Created with Pixso.
	</desc>
	<defs>
		<clipPath id="clip40_5835">
			<rect id="save 1" width="24.000000" height="24.000000" fill="white" fill-opacity="0"/>
		</clipPath>
	</defs>
	<rect id="save 1" width="24.000000" height="24.000000" fill="#FFFFFF" fill-opacity="0"/>
	<g clip-path="url(#clip40_5835)">
		<path id="Vector" d="M5 21C4.46 21 3.96 20.78 3.58 20.41C3.21 20.03 3 19.53 3 19L3 5C3 4.46 3.21 3.96 3.58 3.58C3.96 3.21 4.46 3 5 3L16 3L21 8L21 19C21 19.53 20.78 20.03 20.41 20.41C20.03 20.78 19.53 21 19 21L5 21Z" stroke="#FFFFFF" stroke-opacity="1.000000" stroke-width="2.000000" stroke-linejoin="round"/>
		<path id="Vector" d="M17 21L17 13L7 13L7 21" stroke="#FFFFFF" stroke-opacity="1.000000" stroke-width="2.000000" stroke-linejoin="round" stroke-linecap="round"/>
		<path id="Vector" d="M7 3L7 8L15 8" stroke="#FFFFFF" stroke-opacity="1.000000" stroke-width="2.000000" stroke-linejoin="round" stroke-linecap="round"/>
	</g>
</svg>
